<svg width="244" height="195" viewBox="0 0 244 195" fill="none" xmlns="http://www.w3.org/2000/svg">
<g filter="url(#filter0_d_14_2)">
<path d="M223.452 98.152C245.516 75.6871 245.516 39.3058 223.452 16.8408C203.927 -3.03966 173.156 -5.62412 150.702 10.7176L150.077 11.155C144.454 15.2504 143.165 23.2026 147.187 28.8884C151.21 34.5742 159.02 35.9261 164.604 31.8307L165.229 31.3933C177.764 22.2881 194.907 23.7195 205.763 34.8128C218.064 47.3375 218.064 67.6156 205.763 80.1403L161.948 124.832C149.648 137.356 129.732 137.356 117.431 124.832C106.536 113.738 105.13 96.2833 114.073 83.5598L114.502 82.9236C118.525 77.198 117.197 69.2458 111.613 65.1902C106.028 61.1346 98.1794 62.4467 94.1963 68.1325L93.7667 68.7687C77.678 91.5915 80.2163 122.923 99.7414 142.804C121.805 165.269 157.536 165.269 179.599 142.804L223.452 98.152ZM20.5475 88.848C-1.51584 111.313 -1.51584 147.694 20.5475 170.159C40.0726 190.04 70.8442 192.624 93.2981 176.282L93.9229 175.845C99.5461 171.75 100.835 163.797 96.8126 158.112C92.7904 152.426 84.9804 151.074 79.3962 155.169L78.7714 155.607C66.2363 164.712 49.0932 163.281 38.2373 152.187C25.9365 139.623 25.9365 119.345 38.2373 106.82L82.0516 62.1683C94.3524 49.6436 114.268 49.6436 126.569 62.1683C137.464 73.2617 138.87 90.7167 129.927 103.48L129.498 104.116C125.475 109.842 126.803 117.794 132.387 121.85C137.972 125.905 145.821 124.593 149.804 118.907L150.233 118.271C166.322 95.4085 163.784 64.0769 144.259 44.1964C122.195 21.7314 86.4643 21.7314 64.4009 44.1964L20.5475 88.848Z" fill="#6D4FB5"/>
</g>
<defs>
<filter id="filter0_d_14_2" x="0" y="0" width="244" height="195" filterUnits="userSpaceOnUse" color-interpolation-filters="sRGB">
<feFlood flood-opacity="0" result="BackgroundImageFix"/>
<feColorMatrix in="SourceAlpha" type="matrix" values="0 0 0 0 0 0 0 0 0 0 0 0 0 0 0 0 0 0 127 0" result="hardAlpha"/>
<feOffset dy="4"/>
<feGaussianBlur stdDeviation="2"/>
<feComposite in2="hardAlpha" operator="out"/>
<feColorMatrix type="matrix" values="0 0 0 0 0 0 0 0 0 0 0 0 0 0 0 0 0 0 0.25 0"/>
<feBlend mode="normal" in2="BackgroundImageFix" result="effect1_dropShadow_14_2"/>
<feBlend mode="normal" in="SourceGraphic" in2="effect1_dropShadow_14_2" result="shape"/>
</filter>
</defs>
</svg>
