<svg width="236" height="187" viewBox="0 0 236 187" fill="none" xmlns="http://www.w3.org/2000/svg">
<path d="M219.452 98.152C241.516 75.6871 241.516 39.3058 219.452 16.8408C199.927 -3.03966 169.156 -5.62412 146.702 10.7176L146.077 11.155C140.454 15.2504 139.165 23.2026 143.187 28.8884C147.21 34.5742 155.02 35.9261 160.604 31.8307L161.229 31.3934C173.764 22.2881 190.907 23.7195 201.763 34.8128C214.064 47.3375 214.064 67.6156 201.763 80.1403L157.948 124.832C145.648 137.356 125.732 137.356 113.431 124.832C102.536 113.738 101.13 96.2833 110.073 83.5598L110.502 82.9236C114.525 77.198 113.197 69.2458 107.613 65.1902C102.028 61.1346 94.1794 62.4467 90.1963 68.1325L89.7667 68.7687C73.678 91.5915 76.2163 122.923 95.7414 142.804C117.805 165.269 153.536 165.269 175.599 142.804L219.452 98.152ZM16.5475 88.848C-5.51584 111.313 -5.51584 147.694 16.5475 170.159C36.0726 190.04 66.8442 192.624 89.2981 176.282L89.9229 175.845C95.5461 171.75 96.8348 163.797 92.8126 158.112C88.7904 152.426 80.9804 151.074 75.3962 155.169L74.7714 155.607C62.2363 164.712 45.0932 163.281 34.2373 152.187C21.9365 139.623 21.9365 119.345 34.2373 106.82L78.0516 62.1683C90.3524 49.6436 110.268 49.6436 122.569 62.1683C133.464 73.2617 134.87 90.7167 125.927 103.48L125.498 104.116C121.475 109.842 122.803 117.794 128.387 121.85C133.972 125.905 141.821 124.593 145.804 118.907L146.233 118.271C162.322 95.4085 159.784 64.0769 140.259 44.1964C118.195 21.7314 82.4643 21.7314 60.4009 44.1964L16.5475 88.848Z" fill="#6D4FB5"/>
</svg>
