<svg width="285" height="77" viewBox="0 0 285 77" fill="none" xmlns="http://www.w3.org/2000/svg">
<path d="M82.4479 64.448C79.5893 64.448 77.0933 64.0427 74.9599 63.232C72.8266 62.4213 71.1626 61.2907 69.9679 59.84C68.8159 58.3893 68.2399 56.7467 68.2399 54.912V54.272C68.2399 54.0587 68.3039 53.888 68.4319 53.76C68.6026 53.5893 68.7946 53.504 69.0079 53.504H76.1119C76.3253 53.504 76.4959 53.5893 76.6239 53.76C76.7946 53.888 76.8799 54.0587 76.8799 54.272V54.336C76.8799 55.2747 77.3919 56.0853 78.4159 56.768C79.4826 57.408 80.8053 57.728 82.3839 57.728C83.8346 57.728 85.0079 57.4507 85.9039 56.896C86.7999 56.2987 87.2479 55.5733 87.2479 54.72C87.2479 53.952 86.8639 53.376 86.0959 52.992C85.3279 52.608 84.0693 52.2027 82.3199 51.776C80.3146 51.264 78.7359 50.7733 77.5839 50.304C74.8533 49.3653 72.6773 48.2133 71.0559 46.848C69.4346 45.4827 68.6239 43.52 68.6239 40.96C68.6239 37.8027 69.8399 35.3067 72.2719 33.472C74.7466 31.5947 78.0106 30.656 82.0639 30.656C84.7946 30.656 87.1839 31.104 89.2319 32C91.2799 32.8533 92.8586 34.0693 93.9679 35.648C95.1199 37.2267 95.6959 39.0187 95.6959 41.024C95.6959 41.2373 95.6106 41.4293 95.4399 41.6C95.3119 41.728 95.1413 41.792 94.9279 41.792H88.0799C87.8666 41.792 87.6746 41.728 87.5039 41.6C87.3759 41.4293 87.3119 41.2373 87.3119 41.024C87.3119 40.0853 86.8213 39.296 85.8399 38.656C84.9013 38.016 83.6426 37.696 82.0639 37.696C80.6559 37.696 79.5039 37.952 78.6079 38.464C77.7119 38.976 77.2639 39.68 77.2639 40.576C77.2639 41.4293 77.6906 42.0693 78.5439 42.496C79.4399 42.9227 80.9119 43.3707 82.9599 43.84C83.4293 43.968 83.9626 44.1173 84.5599 44.288C85.1573 44.416 85.7973 44.5867 86.4799 44.8C89.5093 45.696 91.8986 46.848 93.6479 48.256C95.3973 49.664 96.2719 51.712 96.2719 54.4C96.2719 57.5573 95.0133 60.032 92.4959 61.824C90.0213 63.5733 86.6719 64.448 82.4479 64.448ZM118.605 30.592C122.018 30.592 124.77 31.6373 126.861 33.728C128.952 35.8187 129.997 38.656 129.997 42.24V63.232C129.997 63.4453 129.912 63.6373 129.741 63.808C129.613 63.936 129.442 64 129.229 64H121.741C121.528 64 121.336 63.936 121.165 63.808C121.037 63.6373 120.973 63.4453 120.973 63.232V44.096C120.973 42.3893 120.482 41.0027 119.501 39.936C118.562 38.8693 117.304 38.336 115.725 38.336C114.146 38.336 112.866 38.8693 111.885 39.936C110.946 41.0027 110.477 42.3893 110.477 44.096V63.232C110.477 63.4453 110.392 63.6373 110.221 63.808C110.093 63.936 109.922 64 109.709 64H102.221C102.008 64 101.816 63.936 101.645 63.808C101.517 63.6373 101.453 63.4453 101.453 63.232V19.968C101.453 19.7547 101.517 19.584 101.645 19.456C101.816 19.2853 102.008 19.2 102.221 19.2H109.709C109.922 19.2 110.093 19.2853 110.221 19.456C110.392 19.584 110.477 19.7547 110.477 19.968V34.112C110.477 34.24 110.52 34.3253 110.605 34.368C110.69 34.4107 110.754 34.3893 110.797 34.304C112.546 31.8293 115.149 30.592 118.605 30.592ZM152.837 30.656C154.373 30.656 155.589 30.9547 156.485 31.552C156.826 31.7227 156.954 32.0427 156.869 32.512L155.525 39.808C155.482 40.32 155.184 40.4693 154.629 40.256C153.989 40.0427 153.242 39.936 152.389 39.936C152.048 39.936 151.578 39.9787 150.981 40.064C149.445 40.192 148.144 40.768 147.077 41.792C146.01 42.7733 145.477 44.096 145.477 45.76V63.232C145.477 63.4453 145.392 63.6373 145.221 63.808C145.093 63.936 144.922 64 144.709 64H137.221C137.008 64 136.816 63.936 136.645 63.808C136.517 63.6373 136.453 63.4453 136.453 63.232V31.872C136.453 31.6587 136.517 31.488 136.645 31.36C136.816 31.1893 137.008 31.104 137.221 31.104H144.709C144.922 31.104 145.093 31.1893 145.221 31.36C145.392 31.488 145.477 31.6587 145.477 31.872V34.304C145.477 34.432 145.52 34.5173 145.605 34.56C145.69 34.6027 145.754 34.5813 145.797 34.496C147.546 31.936 149.893 30.656 152.837 30.656ZM165.817 27.392C164.366 27.392 163.15 26.9227 162.169 25.984C161.23 25.0027 160.761 23.7867 160.761 22.336C160.761 20.8427 161.23 19.6267 162.169 18.688C163.108 17.7493 164.324 17.28 165.817 17.28C167.31 17.28 168.526 17.7493 169.465 18.688C170.404 19.6267 170.873 20.8427 170.873 22.336C170.873 23.7867 170.382 25.0027 169.401 25.984C168.462 26.9227 167.268 27.392 165.817 27.392ZM161.977 64C161.764 64 161.572 63.936 161.401 63.808C161.273 63.6373 161.209 63.4453 161.209 63.232V31.808C161.209 31.5947 161.273 31.424 161.401 31.296C161.572 31.1253 161.764 31.04 161.977 31.04H169.465C169.678 31.04 169.849 31.1253 169.977 31.296C170.148 31.424 170.233 31.5947 170.233 31.808V63.232C170.233 63.4453 170.148 63.6373 169.977 63.808C169.849 63.936 169.678 64 169.465 64H161.977ZM194.417 30.592C197.831 30.592 200.583 31.6373 202.673 33.728C204.764 35.8187 205.809 38.656 205.809 42.24V63.232C205.809 63.4453 205.724 63.6373 205.553 63.808C205.425 63.936 205.255 64 205.041 64H197.553C197.34 64 197.148 63.936 196.977 63.808C196.849 63.6373 196.785 63.4453 196.785 63.232V44.096C196.785 42.3893 196.295 41.0027 195.313 39.936C194.375 38.8693 193.116 38.336 191.537 38.336C189.959 38.336 188.679 38.8693 187.697 39.936C186.759 41.0027 186.289 42.3893 186.289 44.096V63.232C186.289 63.4453 186.204 63.6373 186.033 63.808C185.905 63.936 185.735 64 185.521 64H178.033C177.82 64 177.628 63.936 177.457 63.808C177.329 63.6373 177.265 63.4453 177.265 63.232V31.872C177.265 31.6587 177.329 31.488 177.457 31.36C177.628 31.1893 177.82 31.104 178.033 31.104H185.521C185.735 31.104 185.905 31.1893 186.033 31.36C186.204 31.488 186.289 31.6587 186.289 31.872V34.112C186.289 34.24 186.332 34.3253 186.417 34.368C186.503 34.4107 186.567 34.3893 186.609 34.304C188.359 31.8293 190.961 30.592 194.417 30.592ZM212.971 64C212.758 64 212.566 63.936 212.395 63.808C212.267 63.6373 212.203 63.4453 212.203 63.232V19.968C212.203 19.7547 212.267 19.584 212.395 19.456C212.566 19.2853 212.758 19.2 212.971 19.2H220.459C220.672 19.2 220.843 19.2853 220.971 19.456C221.142 19.584 221.227 19.7547 221.227 19.968V41.536C221.227 41.664 221.27 41.7493 221.355 41.792C221.44 41.792 221.526 41.7493 221.611 41.664L230.315 31.552C230.614 31.2533 230.934 31.104 231.275 31.104H239.787C240.214 31.104 240.427 31.2533 240.427 31.552C240.427 31.68 240.363 31.8507 240.235 32.064L232.107 42.368C232.022 42.5387 232 42.688 232.043 42.816L241.579 63.104C241.664 63.2747 241.707 63.4027 241.707 63.488C241.707 63.8293 241.472 64 241.003 64H233.131C232.704 64 232.406 63.808 232.235 63.424L225.899 48.448C225.856 48.3627 225.771 48.32 225.643 48.32C225.558 48.2773 225.494 48.2987 225.451 48.384L221.355 53.504C221.27 53.6747 221.227 53.8027 221.227 53.888V63.232C221.227 63.4453 221.142 63.6373 220.971 63.808C220.843 63.936 220.672 64 220.459 64H212.971ZM247.672 64C247.459 64 247.267 63.936 247.096 63.808C246.968 63.6373 246.904 63.4453 246.904 63.232V19.968C246.904 19.7547 246.968 19.584 247.096 19.456C247.267 19.2853 247.459 19.2 247.672 19.2H255.16C255.373 19.2 255.544 19.2853 255.672 19.456C255.843 19.584 255.928 19.7547 255.928 19.968V63.232C255.928 63.4453 255.843 63.6373 255.672 63.808C255.544 63.936 255.373 64 255.16 64H247.672ZM282.02 37.568C282.02 37.7813 281.935 37.9733 281.764 38.144C281.636 38.272 281.466 38.336 281.252 38.336H275.108C274.895 38.336 274.788 38.4427 274.788 38.656V52.224C274.788 53.632 275.066 54.6773 275.62 55.36C276.218 56.0427 277.156 56.384 278.436 56.384H280.548C280.762 56.384 280.932 56.4693 281.06 56.64C281.231 56.768 281.316 56.9387 281.316 57.152V63.232C281.316 63.7013 281.06 63.9787 280.548 64.064C278.756 64.1493 277.476 64.192 276.708 64.192C273.167 64.192 270.522 63.616 268.772 62.464C267.023 61.2693 266.127 59.0507 266.084 55.808V38.656C266.084 38.4427 265.978 38.336 265.764 38.336H262.116C261.903 38.336 261.711 38.272 261.54 38.144C261.412 37.9733 261.348 37.7813 261.348 37.568V31.872C261.348 31.6587 261.412 31.488 261.54 31.36C261.711 31.1893 261.903 31.104 262.116 31.104H265.764C265.978 31.104 266.084 30.9973 266.084 30.784V23.168C266.084 22.9547 266.148 22.784 266.276 22.656C266.447 22.4853 266.639 22.4 266.852 22.4H274.02C274.234 22.4 274.404 22.4853 274.532 22.656C274.703 22.784 274.788 22.9547 274.788 23.168V30.784C274.788 30.9973 274.895 31.104 275.108 31.104H281.252C281.466 31.104 281.636 31.1893 281.764 31.36C281.935 31.488 282.02 31.6587 282.02 31.872V37.568Z" fill="black"/>
<path d="M57.6528 39.719C63.4491 33.8324 63.4491 24.2994 57.6528 18.4128C52.5233 13.2035 44.4392 12.5263 38.5403 16.8084L38.3762 16.923C36.8989 17.9961 36.5604 20.0798 37.617 21.5697C38.6737 23.0596 40.7255 23.4138 42.1925 22.3407L42.3567 22.2261C45.6498 19.8402 50.1535 20.2153 53.0055 23.1221C56.237 26.4039 56.237 31.7175 53.0055 34.9993L41.4949 46.7099C38.2633 49.9918 33.0313 49.9918 29.7997 46.7099C26.9375 43.8031 26.5681 39.2293 28.9174 35.8953L29.0303 35.7286C30.087 34.2284 29.7381 32.1446 28.2711 31.0819C26.8041 30.0192 24.742 30.363 23.6956 31.8529L23.5828 32.0196C19.3561 37.9999 20.0229 46.2098 25.1524 51.4191C30.9487 57.3057 40.3357 57.3057 46.132 51.4191L57.6528 39.719ZM4.34723 37.281C-1.44908 43.1676 -1.44908 52.7006 4.34723 58.5872C9.47671 63.7965 17.5608 64.4737 23.4597 60.1916L23.6238 60.077C25.1011 59.0039 25.4396 56.9202 24.383 55.4303C23.3263 53.9404 21.2745 53.5862 19.8075 54.6593L19.6433 54.7739C16.3502 57.1598 11.8465 56.7847 8.99454 53.8779C5.76297 50.5856 5.76297 45.2721 8.99454 41.9902L20.5051 30.2901C23.7367 27.0082 28.9687 27.0082 32.2003 30.2901C35.0625 33.1969 35.4319 37.7707 33.0826 41.1151L32.9697 41.2818C31.913 42.7821 32.2619 44.8658 33.7289 45.9285C35.1959 46.9912 37.258 46.6474 38.3044 45.1575L38.4172 44.9908C42.6439 39.0001 41.9771 30.7902 36.8476 25.5809C31.0513 19.6943 21.6644 19.6943 15.868 25.5809L4.34723 37.281Z" fill="#6D4FB5"/>
</svg>
